<svg width="49" height="35" viewBox="0 0 49 35" fill="none" xmlns="http://www.w3.org/2000/svg">
<g filter="url(#filter0_d_1_15)">
<path d="M34.2438 6.48118C35.3581 11.0566 33.2119 17.0233 23.4714 22C10.4181 17.6219 11.7733 7.94344 12.1978 6.48118C12.6224 5.01892 14.6755 2.73767 17.4337 2.80195C20.564 2.8749 22.5778 5.38061 22.8413 6.07812C22.9637 5.27602 24.1554 1.98461 28.725 2.00005C29.9051 2.47354 33.1295 1.90572 34.2438 6.48118Z" fill="#FAF2F0"/>
<path d="M22.8582 6.24534C22.6613 6.45879 23.3975 1.98205 28.725 2.00005C29.9051 2.47354 33.1295 1.90572 34.2438 6.48118C35.3581 11.0566 33.2119 17.0233 23.4714 22C10.4181 17.6219 11.7733 7.94344 12.1978 6.48118C12.6224 5.01892 14.6755 2.73767 17.4337 2.80195C20.9479 2.88385 23.055 6.03189 22.8582 6.24534Z" stroke="#211F20" stroke-width="3"/>
<path d="M12.0849 10.9719C10.9528 11.3492 6.77711 13.1322 6 15.736C6.8004 18.1561 10.3609 17.4915 15.1037 16.9624C22.9112 15.1565 27.6232 14.2704 34.7263 12.1983C40.721 10.4999 42.9886 9.52813 42.698 7.71717C41.6294 5.76684 39.9994 5.17526 35.198 5.64171" stroke="#211F20" stroke-width="3"/>
<path d="M36.7546 5.53769C35.7856 5.42496 34.2546 5.86788 34.2546 5.86788" stroke="#211F20" stroke-width="3"/>
</g>
<defs>
<filter id="filter0_d_1_15" x="0.427731" y="0.5" width="47.7947" height="34.1227" filterUnits="userSpaceOnUse" color-interpolation-filters="sRGB">
<feFlood flood-opacity="0" result="BackgroundImageFix"/>
<feColorMatrix in="SourceAlpha" type="matrix" values="0 0 0 0 0 0 0 0 0 0 0 0 0 0 0 0 0 0 127 0" result="hardAlpha"/>
<feOffset dy="7"/>
<feGaussianBlur stdDeviation="2"/>
<feComposite in2="hardAlpha" operator="out"/>
<feColorMatrix type="matrix" values="0 0 0 0 0 0 0 0 0 0 0 0 0 0 0 0 0 0 0.25 0"/>
<feBlend mode="normal" in2="BackgroundImageFix" result="effect1_dropShadow_1_15"/>
<feBlend mode="normal" in="SourceGraphic" in2="effect1_dropShadow_1_15" result="shape"/>
</filter>
</defs>
</svg>
